# xmcd
#
# Track frame offsets:
#	150
#	21580
#	49755
#	74613
#	91483
#	106883
#	128113
#	149828
#	170455
#	190875
#	211563
#	235253
#	255748
#	275090
#	292080
#
# Disc length: 4158 seconds
#
# Revision: 1
# Processed by: cddbd v1.5.1PL2 Copyright (c) Steve Scherf et al.
# Submitted via: audiograbber 1.83.01
#
DISCID=ef103c0f
DTITLE=Igor' Saruhanov - Luchshie pesni 2
DYEAR=1994
DGENRE=Russ-Pop
TTITLE0=Ja hochu sojti s uma 
TTITLE1=Flejta v sadu
TTITLE2=Pominal'naja
TTITLE3=Na Chernom more
TTITLE4=Stylaja osen'
TTITLE5=Dva lucha
TTITLE6=Zhili-byli
TTITLE7=Funny Love
TTITLE8=Miami Beach
TTITLE9=Za rekoj
TTITLE10=Padal sneg
TTITLE11=Zhelaju tebe
TTITLE12=Pal'my
TTITLE13=Oslepitel'naja blondinka
TTITLE14=Belaja noch'
EXTD=
EXTT0=
EXTT1=
EXTT2=
EXTT3=
EXTT4=
EXTT5=
EXTT6=
EXTT7=
EXTT8=
EXTT9=
EXTT10=
EXTT11=
EXTT12=
EXTT13=
EXTT14=
PLAYORDER=
